<svg version="1" xmlns="http://www.w3.org/2000/svg" width="666.667" height="666.667" viewBox="0 0 500.000000 500.000000"><path d="M0 250v250h500V0H0v250zm450 0v200H50V50h400v200z"/><path d="M71 250v179h358V71H71v179zm86.7-104.6l3.3 3.6v81h-14v-18.5c0-10.2-.2-18.5-.4-18.5s-2.4 1.2-5 2.6l-4.6 2.6V230h-14v-80.9l3.1-3.5c3.5-4.1 5.7-4.5 18.9-4.1 9.4.4 9.5.4 12.7 3.9zm49 0c3 3.2 3.3 4.2 3.3 9.9v6.3l-6.5 3.2c-3.6 1.8-6.8 3.2-7 3.2-.3 0-.5-2.9-.5-6.5V155h-10v62h10v-11l7-3.5 7-3.5v11.8c0 12.9-.7 15-6 17.7-4 2.1-22 2.1-26 0-6.1-3.2-6-2.4-6-42.7v-36.7l3.1-3.5c3.5-4.1 5.7-4.5 18.9-4.1 9.4.4 9.5.4 12.7 3.9zM258 148v7h-14v75h-14v-75h-14v-6.3c0-3.5.3-6.7.7-7 .3-.4 9.8-.7 21-.7H258v7zm21 37.5V230h-14v-43.8c0-24.1.3-44.2.7-44.5.3-.4 3.5-.7 7-.7h6.3v44.5zm45.7-40.1l3.3 3.6v36.8c0 40.3.1 39.5-6 42.7-4 2.1-22 2.1-26 0-6.1-3.2-6-2.4-6-42.7v-36.7l3.1-3.5c3.5-4.1 5.7-4.5 18.9-4.1 9.4.4 9.5.4 12.7 3.9zm28.1-1.7l.3 2.3 2.9-2.2c2.2-1.6 4.3-2.1 8.7-2 5.3 0 6 .3 9 3.6l3.3 3.6v81h-14v-75h-10v75h-14v-89.1l6.8.3c6.1.3 6.7.5 7 2.5zM197.9 249.6c4.9 3.5 5.1 5.5 5.1 47.4v39h-14v-18.5c0-10.2-.2-18.5-.5-18.5s-2.8 1.1-5.5 2.5l-5 2.5v32h-14v-39c0-51.1-.8-49 19.5-49 9.5 0 12.5.3 14.4 1.6zm49 0c4 2.8 5.1 7.3 5.1 20.2 0 9.8-.3 12.4-2 15.7-2.4 4.8-2.4 4.5.1 4.5 2 0 2 .4 1.7 19.5l-.3 19.5-3.3 3.2-3.2 3.3-16 .3-16 .3V248h15.8c12.9 0 16.2.3 18.1 1.6zm29.1 35.9V323h20v13h-34v-88h14v37.5zm61-31v6.5h-19v11.5c0 6.3.2 11.5.5 11.5s4.6-2 9.5-4.5l9-4.5v15.5l-9.5 4.8-9.5 4.7v23h19v13h-33v-81.2l3.4-3.4 3.4-3.4H337v6.5z"/><path d="M137 168.5V182l5-2.5 5-2.5v-22h-10v13.5zM304 186v31h10v-62h-10v31zM178 274.5c0 7.4.2 13.5.5 13.5s2.8-1.1 5.5-2.5l5-2.5v-22h-11v13.5zM227 272.5c0 6.3.2 11.5.5 11.5s2.8-1.1 5.5-2.5l5-2.5v-18h-11v11.5zM231.8 297.6L227 300v23h11v-14c0-7.7-.3-14-.7-14-.5.1-2.9 1.2-5.5 2.6z"/></svg>